<?xml version="1.0" standalone="no"?>
<!DOCTYPE svg PUBLIC "-//W3C//DTD SVG 20010904//EN"
 "http://www.w3.org/TR/2001/REC-SVG-20010904/DTD/svg10.dtd">
<svg version="1.0" xmlns="http://www.w3.org/2000/svg"
 width="1000.000000pt" height="1000.000000pt" viewBox="0 0 1000.000000 1000.000000"
 preserveAspectRatio="xMidYMid meet">
<metadata>
Created by potrace 1.11, written by Peter Selinger 2001-2013
</metadata>
<g transform="translate(0.000000,1000.000000) scale(0.100000,-0.100000)"
fill="#000000" stroke="none">
<path d="M4510 8844 c-248 -28 -419 -64 -600 -126 -860 -294 -1403 -1093
-1437 -2115 l-6 -183 457 0 456 0 0 65 c0 101 28 345 56 488 62 317 170 543
347 724 163 167 353 267 615 324 124 26 471 38 619 20 352 -43 592 -162 758
-376 190 -245 276 -499 277 -815 1 -266 -73 -496 -240 -745 -82 -122 -146
-191 -480 -516 -519 -505 -726 -753 -881 -1057 -142 -279 -215 -630 -228
-1089 l-6 -223 456 0 457 0 0 133 c0 335 56 646 155 854 106 225 254 403 725
873 668 666 845 895 935 1205 93 323 93 760 0 1112 -85 322 -230 576 -469 822
-328 336 -700 520 -1231 607 -73 12 -182 17 -400 19 -165 2 -316 1 -335 -1z"/>
<path d="M4190 1860 l0 -530 505 0 505 0 0 530 0 530 -505 0 -505 0 0 -530z"/>
</g>
</svg>
